<?xml version="1.0" encoding="utf-8"?>
<!-- Generator: Adobe Illustrator 26.5.0, SVG Export Plug-In . SVG Version: 6.00 Build 0)  -->
<svg version="1.1" id="Layer_1" xmlns="http://www.w3.org/2000/svg" xmlns:xlink="http://www.w3.org/1999/xlink" x="0px" y="0px"
	 viewBox="0 0 48 48" style="enable-background:new 0 0 48 48;" xml:space="preserve">
<style type="text/css">
	.st0{fill:#FFFFFF;}
</style>
<path class="st0" d="M37.7,6H10.3C7.9,6,6,7.9,6,10.3v27.4c0,2.4,1.9,4.3,4.3,4.3h27.4c2.4,0,4.3-1.9,4.3-4.3V10.3
	C42,7.9,40.1,6,37.7,6z M34.3,21.7c-0.2,0-0.4,0-0.6,0c-2.2,0-4.2-1.2-5.4-2.9c0,4.6,0,9.8,0,9.9c0,4-3.3,7.3-7.3,7.3
	s-7.3-3.3-7.3-7.3s3.3-7.3,7.3-7.3c0.2,0,0.3,0,0.5,0V25c-0.1,0-0.3,0-0.5,0c-2.1,0-3.7,1.7-3.7,3.7s1.7,3.7,3.7,3.7
	s3.9-1.6,3.9-3.7c0-0.1,0-16.8,0-16.8h3.4c0.3,3.1,2.8,5.5,5.9,5.7V21.7z"/>
</svg>
