<svg xmlns="http://www.w3.org/2000/svg" width="135.431" height="135.432" viewBox="0 0 135.431 135.432">
  <path id="패스_3574" data-name="패스 3574" d="M71.288,53.064c2.24-11.995.439-30-19.393-49.835C50.88,2.213,49.97,1.092,48.949,0c0,0,45.506,31.092,33.419,71.289,11.995,2.24,30,.439,49.832-19.393,1.016-1.016,2.14-1.926,3.232-2.947,0,0-31.092,45.506-71.288,33.419-2.243,11.995-.439,30,19.39,49.835,1.016,1.013,1.929,2.137,2.95,3.229,0,0-45.508-31.092-33.419-71.289-11.995-2.243-30-.439-49.834,19.39C2.213,84.549,1.092,85.461,0,86.483c0,0,31.092-45.506,71.288-33.419" fill="#9667ff"/>
</svg>
