<?xml version="1.0" encoding="utf-8"?>
<!-- Generator: Adobe Illustrator 27.2.0, SVG Export Plug-In . SVG Version: 6.00 Build 0)  -->
<svg version="1.1" id="Layer_1" xmlns="http://www.w3.org/2000/svg" xmlns:xlink="http://www.w3.org/1999/xlink" x="0px" y="0px"
	 viewBox="0 0 119 120.2" style="enable-background:new 0 0 119 120.2;" xml:space="preserve">
<style type="text/css">
	.st0{fill:none;}
	.st1{fill:#9667FF;}
</style>
<rect class="st0" width="119" height="120.2"/>
<g id="그룹_10051" transform="translate(-466.998 -5534.237)">
	<path id="패스_3539" class="st1" d="M523.3,5546.6c11.3,0,20.5,9.2,20.5,20.5c0,10.8-8.3,19.7-19.1,20.4c0.6,0,1.2,0.1,1.8,0.1
		c13.1,0,23.7-10.6,23.7-23.7s-10.6-23.7-23.7-23.7s-23.7,10.6-23.7,23.7c0,0,0,0,0,0c0,0.6,0,1.2,0.1,1.8
		C503.6,5554.9,512.5,5546.6,523.3,5546.6"/>
	<path id="패스_3540" class="st1" d="M556.4,5570.7c-0.6,0-1.2,0-1.8,0.1c11.3,0.8,19.8,10.6,19,21.9s-10.6,19.8-21.9,19
		c-10.2-0.7-18.3-8.8-19-19c0,0.6-0.1,1.2-0.1,1.8c0,13.1,10.6,23.7,23.7,23.7s23.7-10.6,23.7-23.7S569.4,5570.7,556.4,5570.7"/>
	<path id="패스_3541" class="st1" d="M499.8,5577c10.8,0,19.7,8.3,20.4,19.1c0-0.6,0.1-1.2,0.1-1.8c0-13.1-10.6-23.7-23.7-23.7
		s-23.7,10.6-23.7,23.7c0,13.1,10.6,23.7,23.7,23.7c0.6,0,1.2,0,1.8-0.1c-11.3-0.8-19.8-10.5-19-21.8
		C480.1,5585.3,489,5577,499.8,5577"/>
	<path id="패스_3542" class="st1" d="M529.7,5642.1c-11.3,0-20.5-9.2-20.5-20.5c0-10.8,8.3-19.7,19.1-20.4c-0.6,0-1.2-0.1-1.8-0.1
		c-13.1,0-23.7,10.6-23.7,23.7s10.6,23.7,23.7,23.7s23.7-10.6,23.7-23.7c0-0.6,0-1.2-0.1-1.8
		C549.4,5633.7,540.4,5642.1,529.7,5642.1"/>
</g>
</svg>
