<svg xmlns="http://www.w3.org/2000/svg" width="154.479" height="154.478" viewBox="0 0 154.479 154.478">
  <path id="패스_3544" data-name="패스 3544" d="M100.685,95.341l43.222,20.9L103.681,88.918a1.265,1.265,0,0,1,.948-2.289l22.613,4.318-20.972-7.3a1.265,1.265,0,0,1,.325-2.457l47.884-3.508-48.5-3.551a1.265,1.265,0,0,1-.325-2.457L127.4,64.11l-21.809,4.163a1.265,1.265,0,0,1-.951-2.289L144.354,39l-43.78,21.178a1.266,1.266,0,0,1-1.509-1.967L114.112,40.79,97.307,55.3a1.265,1.265,0,0,1-1.967-1.509L116.247,10.57,88.92,50.8a1.266,1.266,0,0,1-2.292-.948l4.321-22.613-7.3,20.969a1.265,1.265,0,0,1-2.457-.322L77.687,0,74.135,48.5a1.265,1.265,0,0,1-2.457.322L64.11,27.08l4.166,21.812a1.266,1.266,0,0,1-2.292.948L39.007,10.123,60.182,53.9a1.265,1.265,0,0,1-1.967,1.509L40.79,40.367,55.3,57.173a1.266,1.266,0,0,1-1.509,1.967L10.573,38.233,50.8,65.56a1.265,1.265,0,0,1-.948,2.289L27.237,63.531l20.972,7.3a1.265,1.265,0,0,1-.325,2.457L0,76.793l48.5,3.551a1.265,1.265,0,0,1,.325,2.457L27.083,90.367,48.892,86.2a1.266,1.266,0,0,1,.951,2.289l-39.717,26.98L53.906,94.3a1.266,1.266,0,0,1,1.509,1.967L40.367,113.688,57.173,99.176a1.265,1.265,0,0,1,1.967,1.509L38.232,143.907l27.327-40.229a1.267,1.267,0,0,1,2.292.948L63.53,127.243l7.3-20.972a1.267,1.267,0,0,1,2.46.322l3.505,47.884,3.551-48.5a1.267,1.267,0,0,1,2.46-.322L90.369,127.4,86.2,105.585a1.266,1.266,0,0,1,2.292-.948l26.977,39.717L94.3,100.574a1.265,1.265,0,0,1,1.967-1.509l17.426,15.048L99.176,97.307a1.266,1.266,0,0,1,1.509-1.967M77.24,102.216A24.977,24.977,0,1,1,102.215,77.24,24.976,24.976,0,0,1,77.24,102.216" fill="#9667ff"/>
</svg>