<svg xmlns="http://www.w3.org/2000/svg" width="139.998" height="147.61" viewBox="0 0 139.998 147.61">
  <path id="패스_3543" data-name="패스 3543" d="M140,73.805c-36.61-1.875-40.158-3.394-38.522-23.759C97.12,66.055,93.238,70.416,74,72.462a2.131,2.131,0,0,1-2.332-2.373C74.171,49.81,79.52,45.752,98.956,41.28,74.135,42.83,72.285,39.013,70,0c-2.284,39.013-4.136,42.83-28.957,41.28,19.436,4.472,24.786,8.53,27.291,28.809A2.127,2.127,0,0,1,66,72.462c-19.263-2.042-23.193-6.4-27.692-22.416C40.129,70.411,36.61,71.931,0,73.805,36.61,75.68,40.129,77.2,38.311,97.565c4.5-16.012,8.43-20.373,27.69-22.416a2.129,2.129,0,0,1,2.332,2.373c-2.506,20.257-7.858,24.263-27.291,28.584C65.863,104.748,67.715,108.6,70,147.61c2.286-39.013,4.136-42.862,28.957-41.5-19.433-4.321-24.786-8.327-27.291-28.584A2.131,2.131,0,0,1,74,75.149c19.241,2.045,23.123,6.406,27.478,22.416C99.839,77.2,103.388,75.68,140,73.805" fill="#9667ff"/>
</svg>