<?xml version="1.0" encoding="utf-8"?>
<!-- Generator: Adobe Illustrator 16.0.0, SVG Export Plug-In . SVG Version: 6.00 Build 0)  -->
<!DOCTYPE svg PUBLIC "-//W3C//DTD SVG 1.1//EN" "http://www.w3.org/Graphics/SVG/1.1/DTD/svg11.dtd">
<svg version="1.1" id="Layer_1" xmlns="http://www.w3.org/2000/svg" xmlns:xlink="http://www.w3.org/1999/xlink" x="0px" y="0px"
	 width="130px" height="130px" viewBox="0 0 130 130" enable-background="new 0 0 130 130" xml:space="preserve">
<filter  height="130" width="130" x="0" y="0" id="타원_2" filterUnits="userSpaceOnUse">
	<feOffset  dy="5" input="SourceAlpha"></feOffset>
	<feGaussianBlur  result="blur" stdDeviation="5"></feGaussianBlur>
	<feFlood  flood-opacity="0.161"></feFlood>
	<feComposite  in2="blur" operator="in"></feComposite>
	<feComposite  in="SourceGraphic" operator="over"></feComposite>
</filter>
<g id="그룹_98" transform="translate(-381 -2773)">
	<g transform="matrix(1, 0, 0, 1, 381, 2773)" filter="url(#타원_2)">
		<circle id="타원_2-2_1_" fill="#FFFFFF" cx="65" cy="60" r="50"/>
	</g>
</g>
<path fill-rule="evenodd" clip-rule="evenodd" fill="#231F20" d="M64.865,47.183c6.389,11.075,12.591,21.831,18.9,32.771
	c-7.961,0-15.646,0-23.622,0c0.854-1.494,1.546-2.819,2.371-4.057c0.19-0.286,0.833-0.371,1.269-0.375
	c3.24-0.029,6.479-0.01,9.717-0.021c0.494-0.002,0.988-0.09,1.84-0.172c-3.513-6.107-6.885-11.967-10.402-18.082
	c-0.504,0.744-0.855,1.205-1.146,1.703c-3.925,6.744-7.835,13.496-11.777,20.23c-0.214,0.364-0.667,0.807-1.03,0.827
	c-1.581,0.091-3.171,0.039-5.145,0.039C52.216,69.029,58.437,58.286,64.865,47.183z"/>
<path fill-rule="evenodd" clip-rule="evenodd" fill="#F87849" d="M64.898,41.55c-1.822-2.618-3.625-4.886-5.06-7.366
	c-1.301-2.25-0.383-5.149,1.718-6.656c2.154-1.541,5.067-1.32,7.003,0.531c1.845,1.766,2.176,4.67,0.74,6.875
	C67.918,37.058,66.494,39.155,64.898,41.55z"/>
</svg>
