<?xml version="1.0" encoding="utf-8"?>
<!-- Generator: Adobe Illustrator 16.0.0, SVG Export Plug-In . SVG Version: 6.00 Build 0)  -->
<!DOCTYPE svg PUBLIC "-//W3C//DTD SVG 1.1//EN" "http://www.w3.org/Graphics/SVG/1.1/DTD/svg11.dtd">
<svg version="1.1" id="Layer_1" xmlns="http://www.w3.org/2000/svg" xmlns:xlink="http://www.w3.org/1999/xlink" x="0px" y="0px"
	 width="64.828px" height="64.828px" viewBox="0 0 64.828 64.828" enable-background="new 0 0 64.828 64.828" xml:space="preserve">
<path fill-rule="evenodd" clip-rule="evenodd" fill="#231F20" d="M33.153,25.606c7.464,12.94,14.713,25.509,22.084,38.29
	c-9.301,0-18.281,0-27.6,0c0.999-1.746,1.807-3.295,2.771-4.74c0.221-0.334,0.973-0.434,1.482-0.438
	c3.785-0.034,7.569-0.012,11.352-0.024c0.576-0.002,1.155-0.105,2.15-0.202c-4.104-7.136-8.045-13.981-12.155-21.126
	c-0.589,0.869-1,1.408-1.339,1.989c-4.586,7.88-9.154,15.77-13.76,23.638c-0.25,0.426-0.779,0.942-1.204,0.967
	c-1.847,0.105-3.705,0.045-6.012,0.045C18.374,51.132,25.642,38.58,33.153,25.606z"/>
<path fill-rule="evenodd" clip-rule="evenodd" fill="#EF4C23" d="M33.191,19.025c-2.128-3.06-4.235-5.709-5.911-8.606
	c-1.52-2.63-0.448-6.017,2.007-7.778c2.517-1.8,5.92-1.542,8.183,0.621c2.157,2.063,2.543,5.457,0.865,8.033
	C36.719,13.776,35.057,16.227,33.191,19.025z"/>
</svg>
