<?xml version="1.0" encoding="utf-8"?>
<!-- Generator: Adobe Illustrator 16.0.0, SVG Export Plug-In . SVG Version: 6.00 Build 0)  -->
<!DOCTYPE svg PUBLIC "-//W3C//DTD SVG 1.1//EN" "http://www.w3.org/Graphics/SVG/1.1/DTD/svg11.dtd">
<svg version="1.1" id="Layer_1" xmlns="http://www.w3.org/2000/svg" xmlns:xlink="http://www.w3.org/1999/xlink" x="0px" y="0px"
	 width="56.693px" height="56.693px" viewBox="0 0 56.693 56.693" enable-background="new 0 0 56.693 56.693" xml:space="preserve">
<g>
	<g>
		<path fill="#F87849" d="M41.1,9.722V5.875H15.561v3.848H8.718V20.35l0.395,0.842c0.944,1.732,3.227,3.229,6.557,4.287
			c0.713,5.764,5.261,10.328,11.014,11.07v5.711h-6.704v3.298h16.706V42.26H29.98V36.55c5.753-0.743,10.3-5.308,11.013-11.07
			c3.33-1.061,5.613-2.555,6.556-4.287l0.396-11.471L41.1,9.722L41.1,9.722z M12.259,20.277l-0.072-0.207v-7.343h3.375v10.076
			C13.73,22.207,12.533,21.383,12.259,20.277z M44.475,19.981l-0.073,0.296c-0.274,1.105-1.471,1.93-3.302,2.525V12.727h3.375
			V19.981z"/>
	</g>
</g>
</svg>
