<?xml version="1.0" encoding="utf-8"?>
<!-- Generator: Adobe Illustrator 16.0.0, SVG Export Plug-In . SVG Version: 6.00 Build 0)  -->
<!DOCTYPE svg PUBLIC "-//W3C//DTD SVG 1.1//EN" "http://www.w3.org/Graphics/SVG/1.1/DTD/svg11.dtd">
<svg version="1.1" id="Layer_1" xmlns="http://www.w3.org/2000/svg" xmlns:xlink="http://www.w3.org/1999/xlink" x="0px" y="0px"
	 width="56.693px" height="56.693px" viewBox="0 0 56.693 56.693" enable-background="new 0 0 56.693 56.693" xml:space="preserve">
<g>
	<g>
		<circle fill="#F4784A" cx="28.341" cy="20.293" r="6.524"/>
		<path fill="#F4784A" d="M43.102,48.018c0.003-0.17,0.02-0.335,0.02-0.505c0-10.68-6.618-19.335-14.781-19.335
			c-8.163,0-14.78,8.656-14.78,19.335c0,0.17,0.017,0.335,0.02,0.505H43.102z"/>
		<path fill="#F4784A" d="M26.238,12.448c-0.96-2.408-3.302-4.115-6.052-4.115c-3.603,0-6.524,2.921-6.524,6.524
			c0,3.603,2.921,6.523,6.524,6.523c0.025,0,0.049-0.008,0.074-0.008c-0.047-0.353-0.074-0.713-0.074-1.079
			C20.187,16.529,22.765,13.382,26.238,12.448z"/>
		<path fill="#F4784A" d="M36.496,20.293c0,0.362-0.028,0.717-0.075,1.067c3.509-0.107,6.326-2.969,6.326-6.503
			c0-3.603-2.921-6.524-6.523-6.524c-2.722,0-5.049,1.669-6.028,4.038C33.798,13.215,36.496,16.437,36.496,20.293z"/>
		<path fill="#F4784A" d="M51.003,42.076c0-10.679-6.617-19.336-14.78-19.336c-0.042,0-0.083,0.006-0.125,0.007
			c-0.639,1.983-2.018,3.635-3.814,4.639c5.798,1.914,10.363,7.771,11.82,15.195h6.879C50.987,42.412,51.003,42.247,51.003,42.076z"
			/>
		<path fill="#F4784A" d="M24.283,27.324c-1.737-1.006-3.066-2.628-3.694-4.564c-0.134-0.005-0.267-0.02-0.403-0.02
			c-8.163,0-14.78,8.657-14.78,19.336c0,0.17,0.017,0.336,0.02,0.505h6.848C13.747,35.077,18.395,29.17,24.283,27.324z"/>
	</g>
</g>
</svg>
