<?xml version="1.0" encoding="utf-8"?>
<!-- Generator: Adobe Illustrator 16.0.0, SVG Export Plug-In . SVG Version: 6.00 Build 0)  -->
<!DOCTYPE svg PUBLIC "-//W3C//DTD SVG 1.1//EN" "http://www.w3.org/Graphics/SVG/1.1/DTD/svg11.dtd">
<svg version="1.1" id="구성_요소_2_3" xmlns="http://www.w3.org/2000/svg" xmlns:xlink="http://www.w3.org/1999/xlink" x="0px"
	 y="0px" width="120.121px" height="25px" viewBox="0 0 120.121 25" enable-background="new 0 0 120.121 25" xml:space="preserve">
<text transform="matrix(1 0 0 1 0.2388 20)" fill="#F87849" font-family="'ArialMT'" font-size="22">More View</text>
<g id="icn_arrow" transform="translate(111.075 5.075)">
	<path id="패스_13" fill="#F87849" d="M0.749,16.581c-0.221,0-0.433-0.094-0.582-0.258c-0.32-0.318-0.322-0.836-0.004-1.158
		c0.001-0.001,0.002-0.002,0.004-0.004l6.916-6.916L0.232,1.331c-0.321-0.322-0.321-0.844,0.002-1.166
		C0.556-0.157,1.079-0.156,1.4,0.167L8.827,7.6C9.015,7.784,9.09,8.056,9.021,8.312v0.129c-0.037,0.16-0.103,0.313-0.194,0.451
		l-7.5,7.432C1.176,16.484,0.968,16.577,0.749,16.581z"/>
</g>
</svg>
