<?xml version="1.0" encoding="utf-8"?>
<!-- Generator: Adobe Illustrator 25.4.1, SVG Export Plug-In . SVG Version: 6.00 Build 0)  -->
<svg version="1.1" id="Layer_1" xmlns="http://www.w3.org/2000/svg" xmlns:xlink="http://www.w3.org/1999/xlink" x="0px" y="0px"
	 viewBox="0 0 160 160" style="enable-background:new 0 0 160 160;" xml:space="preserve">
<style type="text/css">
	.st0{fill:#060606;}
</style>
<g>
	<path class="st0" d="M140.99,49.68c-10.77,0-20.44,0-30.12,0c-1.32,0-2.65-0.01-3.97-0.01c-1.36,0-2.24-0.69-2.39-2.01
		c-0.19-1.79,1.13-2.27,2.52-2.32c2.81-0.1,5.62-0.05,8.44-0.05c9.1,0,18.21,0.19,27.3-0.08c4.44-0.14,5.68,1.47,5.58,5.76
		c-0.26,11.24-0.08,22.5-0.09,33.75c0,1.77,0.41,4.29-1.91,4.43c-2.84,0.17-2.44-2.55-2.45-4.44c-0.04-10.22-0.02-20.44-0.02-30.74
		c-2.11-0.03-2.75,1.52-3.71,2.48c-15.36,15.29-30.81,30.49-45.92,46.03c-3.64,3.74-5.64,3.39-8.99-0.17
		c-8.18-8.65-16.95-16.75-25.1-25.43c-2.98-3.18-4.36-2.55-7.05,0.22C41.22,89.32,29.1,101.3,17,113.3
		c-1.24,1.23-2.55,3.9-4.72,1.59c-1.88-2,0.56-3.22,1.7-4.37c13.18-13.26,26.47-26.41,39.58-39.74c2.52-2.56,4.06-2.29,6.42,0.12
		c9.02,9.23,18.2,18.3,27.34,27.41c1.18,1.17,2.03,3.09,4.25,0.85C107.72,82.88,123.96,66.71,140.99,49.68z"/>
</g>
</svg>
