<?xml version="1.0" encoding="utf-8"?>
<!-- Generator: Adobe Illustrator 25.4.1, SVG Export Plug-In . SVG Version: 6.00 Build 0)  -->
<svg version="1.1" id="Layer_1" xmlns="http://www.w3.org/2000/svg" xmlns:xlink="http://www.w3.org/1999/xlink" x="0px" y="0px"
	 viewBox="0 0 160 160" style="enable-background:new 0 0 160 160;" xml:space="preserve">
<style type="text/css">
	.st0{fill:#1F1D1C;}
	.st1{fill:#050505;}
</style>
<g>
	<path class="st0" d="M33.14,31.81c1.4,0.04,2.03,0.85,2.72,1.54c5.49,5.48,10.99,10.95,16.43,16.47c1.07,1.09,2.89,2.26,1,4.06
		c-1.83,1.75-2.98-0.01-4.09-1.11c-5.51-5.45-10.98-10.96-16.47-16.43c-0.97-0.97-1.84-1.94-1.3-3.45
		C31.77,31.94,32.58,31.83,33.14,31.81z"/>
	<path class="st0" d="M108.39,54.54c-1.12,0.14-1.67-0.43-2.14-1.15c-0.69-1.05-0.22-1.9,0.5-2.63c6.05-6.09,12.1-12.17,18.18-18.22
		c0.9-0.9,2.12-1.14,3.13-0.27c1.05,0.9,0.9,2.22,0.03,3.1c-6.15,6.22-12.36,12.38-18.57,18.53
		C109.19,54.23,108.68,54.38,108.39,54.54z"/>
	<path class="st0" d="M33.44,129.23c-2.26-0.16-2.91-1.92-1.84-3.05c6.25-6.57,12.72-12.92,19.18-19.29
		c0.78-0.77,1.79-0.66,2.59,0.27c0.74,0.85,1.02,1.8,0.19,2.64c-6.26,6.33-12.55,12.64-18.87,18.92
		C34.37,129.03,33.8,129.08,33.44,129.23z"/>
	<path class="st0" d="M128.77,127.25c-0.75,2.52-2.42,2.55-3.78,1.23c-6.16-5.97-12.17-12.09-18.21-18.19
		c-0.85-0.86-1.42-1.91-0.33-3.02c0.93-0.96,2-1.22,3.03-0.2c6.21,6.16,12.41,12.32,18.57,18.53
		C128.47,126.02,128.57,126.76,128.77,127.25z"/>
	<path class="st1" d="M81.96,27.89c0,4.11-0.01,8.21,0,12.32c0,1.49-0.4,2.65-2.2,2.51c-1.5-0.12-1.77-1.19-1.77-2.45
		c0-8.38,0.01-16.76-0.01-25.14c0-1.45,0.31-2.78,1.96-2.81c1.66-0.03,2.03,1.3,2.03,2.75C81.95,19.35,81.96,23.62,81.96,27.89z"/>
	<path class="st1" d="M26.46,82.49c-3.94,0-7.89-0.02-11.83,0.01c-1.45,0.01-2.78-0.28-2.84-1.93c-0.05-1.66,1.26-2.06,2.72-2.06
		c8.38,0.01,16.76,0.01,25.14,0.01c1.47,0,2.69,0.34,2.54,2.16c-0.15,1.84-1.57,1.8-2.91,1.8C35.01,82.49,30.74,82.49,26.46,82.49z"
		/>
	<path class="st1" d="M132.59,82.49c-4.11,0-8.21-0.01-12.32,0c-1.49,0-2.65-0.39-2.51-2.19c0.12-1.5,1.19-1.77,2.45-1.77
		c8.38,0,16.76,0.01,25.14-0.01c1.45,0,2.78,0.31,2.81,1.96c0.03,1.66-1.3,2.03-2.75,2.03C141.13,82.48,136.86,82.49,132.59,82.49z"
		/>
	<path class="st1" d="M77.99,133.19c0-3.94-0.01-7.89,0.01-11.83c0.01-1.48-0.13-3.18,2.12-3.07c1.85,0.09,1.84,1.51,1.84,2.87
		c0,8.21-0.01,16.43,0.01,24.64c0,1.44-0.25,2.84-1.89,2.87c-2.01,0.04-2.11-1.61-2.1-3.16C78,141.4,77.99,137.3,77.99,133.19z"/>
</g>
</svg>
