<?xml version="1.0" encoding="utf-8"?>
<!-- Generator: Adobe Illustrator 26.5.0, SVG Export Plug-In . SVG Version: 6.00 Build 0)  -->
<svg version="1.1" id="Layer_1" xmlns="http://www.w3.org/2000/svg" xmlns:xlink="http://www.w3.org/1999/xlink" x="0px" y="0px"
	 viewBox="0 0 48 48" style="enable-background:new 0 0 48 48;" xml:space="preserve">
<style type="text/css">
	.st0{fill:#FFFFFF;}
</style>
<path class="st0" d="M44,8c-1.6,0.9-4.7,2.2-6.5,2.6c-0.1,0-0.1,0-0.2,0C35.7,9,33.5,8,31,8c-5,0-9,4-9,9c0,0.3,0,0.7,0,1
	c-6.7,0-11.8-3.5-15.5-8C6.1,11,6,12.6,6,14.1c0,2.8,2.2,5.6,5.6,7.3c-0.6,0.2-1.3,0.3-2,0.3c-1.2,0-2.4-0.3-3.5-1.2
	c0,0,0,0.1,0,0.1c0,3.9,4.2,6.6,7.9,7.3c-0.8,0.4-2.3,0.5-3,0.5c-0.5,0-2.4-0.2-2.9-0.3c1,3.2,4.7,5,8.3,5.1c-2.8,2.2-4.7,3-10.3,3
	H4c3.6,2.3,8.1,4,12.7,4C31.6,40,40,28.7,40,18c0-0.2,0-0.5,0-0.9c0,0,0-0.1,0-0.1c0-0.1,0-0.1,0-0.2c0-0.3,0-0.5,0-0.7
	c1.6-1.1,3-2.6,4-4.2c-1.5,0.6-3,1.1-4.6,1.3C41,12.3,43.4,9.9,44,8z"/>
</svg>
