<svg id="구성_요소_2_3" data-name="구성 요소 2 – 3" xmlns="http://www.w3.org/2000/svg" width="120.12" height="25" viewBox="0 0 120.12 25">
  <text id="More_View" data-name="More View" transform="translate(52 20)" fill="#6e8ca0" font-size="22" font-family="ArialMT, Arial"><tspan x="-51.761" y="0">More View</tspan></text>
  <g id="icn_arrow" transform="translate(111.075 5.075)">
    <path id="패스_13" data-name="패스 13" d="M.749,16.582a.789.789,0,0,1-.582-.258.819.819,0,0,1,0-1.163L7.082,8.245.232,1.331A.823.823,0,0,1,1.4.167L8.827,7.6a.729.729,0,0,1,.194.711v.129a1.368,1.368,0,0,1-.194.452l-7.5,7.432A.819.819,0,0,1,.749,16.582Z" transform="translate(0 0)" fill="#6e8ca0"/>
  </g>
</svg>
