<svg xmlns="http://www.w3.org/2000/svg" xmlns:xlink="http://www.w3.org/1999/xlink" width="202.781" height="202.781" viewBox="0 0 202.781 202.781">
  <defs>
    <filter id="패스_20" x="13.945" y="8.945" width="174.891" height="174.891" filterUnits="userSpaceOnUse">
      <feOffset dy="10" input="SourceAlpha"/>
      <feGaussianBlur stdDeviation="10" result="blur"/>
      <feFlood flood-color="#b46745" flood-opacity="0.655"/>
      <feComposite operator="in" in2="blur"/>
      <feComposite in="SourceGraphic"/>
    </filter>
    <filter id="outer_ring" x="0" y="0" width="202.781" height="202.781" filterUnits="userSpaceOnUse">
      <feOffset dy="15" input="SourceAlpha"/>
      <feGaussianBlur stdDeviation="7.5" result="blur-2"/>
      <feFlood flood-opacity="0.435"/>
      <feComposite operator="in" in2="blur-2"/>
      <feComposite in="SourceGraphic"/>
    </filter>
    <filter id="다각형_1" x="41.576" y="26.391" width="132" height="140" filterUnits="userSpaceOnUse">
      <feOffset dy="10" input="SourceAlpha"/>
      <feGaussianBlur stdDeviation="15" result="blur-3"/>
      <feFlood flood-opacity="0.161"/>
      <feComposite operator="in" in2="blur-3"/>
      <feComposite in="SourceGraphic"/>
    </filter>
  </defs>
  <g id="구성_요소_1_4" data-name="구성 요소 1 – 4" transform="translate(25 10)">
    <g id="stat">
      <g id="tracking_circle" data-name="tracking circle" transform="translate(18.945 18.945)">
        <g id="icn_add" transform="translate(0 0)">
          <g transform="matrix(1, 0, 0, 1, -43.95, -28.95)" filter="url(#패스_20)">
            <path id="패스_20-2" data-name="패스 20" d="M57.445,0A57.445,57.445,0,1,1,0,57.445,57.445,57.445,0,0,1,57.445,0Z" transform="translate(43.95 28.95)" fill="#fff" opacity="0.183"/>
          </g>
        </g>
      </g>
      <g transform="matrix(1, 0, 0, 1, -25, -10)" filter="url(#outer_ring)">
        <path id="outer_ring-2" data-name="outer ring" d="M76.391,152.781a76.391,76.391,0,1,1,76.391-76.391" transform="translate(25 162.78) rotate(-90)" fill="none" stroke="#f48e61" stroke-linecap="round" stroke-linejoin="round" stroke-miterlimit="10" stroke-width="5"/>
      </g>
    </g>
    <g transform="matrix(1, 0, 0, 1, -25, -10)" filter="url(#다각형_1)">
      <g id="다각형_1-2" data-name="다각형 1" transform="translate(128.58 61.39) rotate(90)" fill="none">
        <path d="M22.422,4.331a3,3,0,0,1,5.156,0L47.3,37.466A3,3,0,0,1,44.723,42H5.277A3,3,0,0,1,2.7,37.466Z" stroke="none"/>
        <path d="M 25 4.865291595458984 C 24.82905960083008 4.865291595458984 24.40315055847168 4.912891387939453 24.14071083068848 5.353809356689453 L 4.417671203613281 38.48852157592773 C 4.149078369140625 38.93973922729492 4.321170806884766 39.34215927124023 4.407619476318359 39.49423217773438 C 4.49407958984375 39.64630889892578 4.751850128173828 40.0000114440918 5.276958465576172 40.0000114440918 L 44.72304153442383 40.0000114440918 C 45.24813842773438 40.0000114440918 45.50592041015625 39.64630126953125 45.59236907958984 39.49423217773438 C 45.67882919311523 39.34215927124023 45.85092163085938 38.93973922729492 45.58232879638672 38.48852157592773 L 25.85928916931152 5.353809356689453 C 25.59683990478516 4.912891387939453 25.17093086242676 4.865291595458984 25 4.865291595458984 M 24.99999618530273 2.865287780761719 C 25.9981517791748 2.865287780761719 26.99630928039551 3.353805541992188 27.577880859375 4.330841064453125 L 47.30091857910156 37.46554946899414 C 48.49124145507812 39.46529006958008 47.05022048950195 42.0000114440918 44.72304153442383 42.0000114440918 L 5.276958465576172 42.0000114440918 C 2.949771881103516 42.0000114440918 1.508758544921875 39.46529006958008 2.699081420898438 37.46554946899414 L 22.422119140625 4.330841064453125 C 23.00368499755859 3.353805541992188 24.00184059143066 2.865287780761719 24.99999618530273 2.865287780761719 Z" stroke="none" fill="#f48e61"/>
      </g>
    </g>
  </g>
</svg>
